<?xml version="1.0" encoding="utf-8"?><!-- Uploaded to: SVG Repo, www.svgrepo.com, Generator: SVG Repo Mixer Tools -->
<svg width="800px" height="800px" viewBox="0 0 1024 1024" class="icon" xmlns="http://www.w3.org/2000/svg"><path fill="#000000" d="M768 832a128 128 0 01-128 128H192A128 128 0 0164 832V384a128 128 0 01128-128v64a64 64 0 00-64 64v448a64 64 0 0064 64h448a64 64 0 0064-64h64z"/><path fill="#000000" d="M384 128a64 64 0 00-64 64v448a64 64 0 0064 64h448a64 64 0 0064-64V192a64 64 0 00-64-64H384zm0-64h448a128 128 0 01128 128v448a128 128 0 01-128 128H384a128 128 0 01-128-128V192A128 128 0 01384 64z"/></svg>